<svg width="24" height="24" viewBox="0 0 24 24" fill="none" xmlns="http://www.w3.org/2000/svg">
<path d="M16 2H8V4H4V8H2V12H4V14H8V12H10V10H14V12H16V14H20V12H22V8H20V4H16V2Z" fill="#F44336"/>
<path fill-rule="evenodd" clip-rule="evenodd" d="M12 12H14V14V16H10V14H12V12ZM20 16H14V18H12V20H8V22H16V20H20V18V16ZM20 16V14H22V16H20ZM4 18H6V20H4V18Z" fill="#9E9E9E"/>
<path fill-rule="evenodd" clip-rule="evenodd" d="M16 0H8V2H4V4H2V8H0V16H2V20H4V22H8V24H16V22H20V20H22V16H24V8H22V4H20V2H16V0ZM16 2V4H20V8H22V12H20V14H16V12H14V10H10V12H8V14H4V12H2V8H4V4H8V2H16ZM4 16H2V14H4V16ZM10 16H4V20H8V22H16V20H20V16H22V14H20V16H14V14V12H10V14V16ZM10 16V18H14V16H10Z" fill="black"/>
<path fill-rule="evenodd" clip-rule="evenodd" d="M10 6V4H8V6H6V8H8V10H10V8H12V6H10ZM2 14H4V16H2V14ZM10 18V16H4V18H6V20H12V18H10ZM12 12H10V14H12V12Z" fill="white"/>
</svg>
